<?xml version="1.0" encoding="utf-8"?>
<!-- Generator: Adobe Illustrator 24.3.0, SVG Export Plug-In . SVG Version: 6.00 Build 0)  -->
<svg version="1.1" id="Layer_1" xmlns="http://www.w3.org/2000/svg" xmlns:xlink="http://www.w3.org/1999/xlink" x="0px" y="0px"
	 viewBox="0 0 512 512" style="enable-background:new 0 0 512 512;" xml:space="preserve">
<style type="text/css">
	.st0{fill:#FFFFFF;}
</style>
<g>
	<path class="st0" d="M358.8,413.5l87.2,87.2c15.1,15.1,39.5,15.1,54.6,0l-98.2-130.9L358.8,413.5z"/>
	<path class="st0" d="M413.5,358.8l87.2,87.2c15.1,15.1,15.1,39.5,0,54.6c-3,3-17.7-6.8-32.8-21.9l-87.2-87.2L413.5,358.8z"/>
	<path class="st0" d="M369.8,402.5l-54.6-54.6l32.8-32.8l54.6,54.6L369.8,402.5z"/>
	<path class="st0" d="M287.9,364.3l33.4,14.3c2.9,1.2,6.3,0.6,8.5-1.6l47.2-47.2c2.2-2.2,2.9-5.6,1.6-8.5l-14.3-33.4L287.9,364.3z"
		/>
	<path class="st0" d="M347.9,424.4c6,6,15.8,6,21.9,0l21.9-21.9l-21.9-21.9l-21.9,21.9C341.9,408.6,341.9,418.3,347.9,424.4z"/>
	<path class="st0" d="M391.6,402.5l32.8-32.8c6-6,6-15.8,0-21.9c-6-6-15.8-6-21.9,0l-32.8,32.8c-6,6-6,15.8,0,21.9
		S385.6,408.6,391.6,402.5z"/>
	<path class="st0" d="M194.2,0C86.9,0,0,86.9,0,194.2s87,194.2,194.2,194.2c34,0,65.9-8.7,93.7-24.1c32.1-17.7,58.7-44.3,76.4-76.4
		c15.3-27.8,24.1-59.7,24.1-93.7C388.4,86.9,301.4,0,194.2,0z M194.2,357.5h-1.7c-89.4-0.9-161.6-73.7-161.6-163.3
		S103.1,31.8,192.5,30.9h1.7c90.2,0,163.3,73.1,163.3,163.3S284.4,357.5,194.2,357.5z"/>
</g>
</svg>
